<svg xmlns="http://www.w3.org/2000/svg" viewBox="0 0 191.3 94.5" enable-background="new 0 0 191.3 94.5"><g fill="#fff"><path d="M6.4 11.2v20.6H0V0h6l13.7 20.6h.1V0h6.4v31.8h-6L6.4 11.2zM55.7 29l-5.3 3H36.2l-5.3-3V2.8l5.3-3h14.2l5.3 3V29zM37.3 5.2v21.4h12V5.2h-12zM84.6 31.8h-7l-6.8-12h-4v12h-6.4V0h17.2L83 3v13.7l-5.3 3 6.9 12.1zM66.9 5.5v8.9h9.8V5.5h-9.8zM113.4 28.8l-5.3 3H88.6V0h19.5l5.3 3v25.8zM95 5.5v20.9h12V5.5H95zM118.2 31.8V0h6.4v31.8h-6.4zM146.4 22.5h6.4V29l-5.3 3h-12.9l-5.3-3V2.8l5.3-3h12.9l5.3 3v6.5h-6.4V5.2h-10.7v21.4h10.7v-4.1z"/></g><g fill="#fff"><path d="M0 55.3V42.4l5.3-3h11.5l5.3 3v6h-6.4v-3.6H6.4v7.6h10.4l5.3 3v13.1l-5.3 3h-12l-5.3-3v-6h6.4v3.6h9.8v-7.9H5.3L0 55.3zM26.8 71.4V39.6h6.4v31.8h-6.4zM51.6 45v26.4h-6.4V45h-8.6v-5.5h23.6V45h-8.6zM70 57.8V66h12.7v5.5h-19V39.6h19.1V45H70v7.3h10v5.5H70zM103.7 62.1h6.4v6.5l-5.3 3H91.9l-5.3-3V42.4l5.3-3h12.9l5.3 3v6.5h-6.4v-4.1H93v21.4h10.7v-4.1zM139.3 68.6l-5.3 3h-14.2l-5.3-3V42.4l5.3-3H134l5.3 3v26.2zm-18.4-23.8v21.4h12V44.8h-12zM168.3 71.4h-7l-6.8-12h-4v12h-6.4V39.6h17.2l5.3 3v13.7l-5.3 3 7 12.1zM150.5 45v8.9h9.8V45h-9.8zM178.6 57.8V66h12.7v5.5h-19.1V39.6h19.1V45h-12.7v7.3h10v5.5h-10z"/></g><g fill="#fff"><path d="M10 93.9c-.5.3-1 .6-1.7.7-.7.1-1.4.2-2.2.2-.9 0-1.7-.1-2.5-.4-.9-.3-1.6-.7-2.2-1.4-.6-.6-1.1-1.4-1.5-2.4-.4-1-.5-2.2-.5-3.6 0-1.5.2-2.7.6-3.7.4-1 .9-1.8 1.6-2.4.6-.6 1.4-1 2.2-1.3.8-.3 1.6-.4 2.4-.4.9 0 1.6.1 2.2.2s1.1.2 1.5.4l-.6 2.5c-.4-.1-.8-.2-1.3-.3-.4-.1-1-.1-1.6-.1-1.2 0-2.1.4-2.8 1.3s-1.1 2.1-1.1 3.9c0 .8.1 1.5.3 2.1.2.6.4 1.2.8 1.6.3.4.8.8 1.3 1 .5.2 1.1.4 1.8.4.6 0 1.2-.1 1.6-.2.4-.1.8-.3 1.2-.5l.5 2.4zM10.6 87c0-2.5.5-4.4 1.6-5.7 1.1-1.3 2.7-2 4.7-2 1.1 0 2 .2 2.8.6.8.4 1.5.9 2 1.6.5.7.9 1.5 1.2 2.5s.4 2 .4 3.2c0 2.5-.6 4.4-1.7 5.7-1.1 1.3-2.7 2-4.7 2-1.1 0-2-.2-2.8-.6-.8-.4-1.5-.9-2-1.6s-.9-1.5-1.2-2.5-.3-2-.3-3.2zm3.1 0c0 .8.1 1.4.2 2.1.1.6.3 1.2.6 1.6.3.5.6.8 1 1.1s.9.4 1.5.4c1 0 1.8-.4 2.4-1.2.6-.8.9-2.1.9-3.9 0-.7-.1-1.4-.2-2-.1-.6-.3-1.2-.6-1.6-.3-.5-.6-.8-1-1.1-.4-.3-.9-.4-1.5-.4-1 0-1.8.4-2.4 1.2-.6.8-.9 2.1-.9 3.8zM29.1 86.7l-1.2-2.3h-.1l.3 2.3v7.8h-2.8v-15h2.1l5.6 8 1.1 2.3h.1l-.2-2.4v-7.8h2.8v15h-2.1l-5.6-7.9zM39.4 79.6h8.8v2.6h-5.9v3.7h5.5v2.6h-5.5v6h-2.9V79.6zM50.2 79.6H59v2.6h-5.9v3.5h5.4v2.6h-5.4v3.6h6v2.6h-9V79.6zM61.3 79.7c.3-.1.7-.1 1.1-.2.4 0 .8-.1 1.1-.1s.7 0 1.1-.1.7 0 1 0c.7 0 1.4.1 2.1.2s1.3.3 1.8.7c.5.3 1 .7 1.3 1.3.3.5.5 1.2.5 2.1 0 1.2-.3 2.2-.9 3-.6.8-1.3 1.3-2.3 1.6l1 .7 3.4 5.7h-3.4l-3.4-5.8-1.5-.3v6.1h-2.9V79.7zm4.5 2.3h-.9c-.3 0-.5 0-.7.1v4.3h1.2c.8 0 1.5-.2 1.9-.6.5-.4.7-1 .7-1.8 0-.6-.2-1.1-.6-1.5-.2-.4-.8-.5-1.6-.5zM74.2 79.6H83v2.6h-5.9v3.5h5.4v2.6h-5.4v3.6h6v2.6h-9V79.6zM89 86.7l-1.2-2.3h-.1l.3 2.3v7.8h-2.8v-15h2.1l5.6 8 1.1 2.3h.1l-.1-2.4v-7.8h2.8v15h-2.1L89 86.7zM109.4 93.9c-.5.3-1 .6-1.7.7-.7.1-1.4.2-2.2.2-.9 0-1.7-.1-2.5-.4-.8-.3-1.5-.7-2.1-1.3-.6-.6-1.1-1.4-1.5-2.4-.4-1-.5-2.2-.5-3.6 0-1.5.2-2.7.6-3.7.4-1 .9-1.8 1.6-2.4.6-.6 1.4-1 2.2-1.3.8-.3 1.6-.4 2.4-.4.9 0 1.6.1 2.2.2s1.1.2 1.5.4l-.6 2.5c-.3-.2-.7-.3-1.2-.3-.4-.1-1-.1-1.6-.1-1.2 0-2.1.4-2.8 1.3-.7.8-1.1 2.1-1.1 3.9 0 .8.1 1.5.3 2.1.2.6.4 1.2.8 1.6.3.4.8.8 1.3 1 .5.2 1.1.4 1.8.4.6 0 1.2-.1 1.6-.2.4-.1.8-.3 1.2-.5l.3 2.3zM111.2 79.6h8.8v2.6h-5.9v3.5h5.4v2.6h-5.4v3.6h6v2.6h-9V79.6z"/></g></svg>