<svg xmlns="http://www.w3.org/2000/svg" viewBox="0 0 168.999 95.854" enable-background="new 0 0 168.999 95.854"><path d="M.87 55.74V42.72l5.34-3.08h11.64l5.34 3.08v6.12h-6.44v-3.68H7.3v7.68h10.54l5.34 3.08v13.3l-5.34 3.08H5.74L.42 69.22V63.1h6.45v3.68h9.9v-7.96H6.2L.88 55.74zm45.59-15.87h6.44V69.2l-5.34 3.1h-14.4l-5.33-3.08V39.87h6.44v26.45h12.18V39.87zM69.04 60.8v-5.52h11.73v13.94l-5.33 3.08H62.42l-5.34-3.08v-26.5l5.34-3.08h13.02l5.33 3.08v6.58h-6.44v-4.14h-10.8v21.62h10.8V60.8h-5.3zm33.16 1.84h6.45v6.58l-5.34 3.08h-13l-5.34-3.08v-26.5l5.33-3.08h13l5.35 3.08v6.58h-6.44v-4.14H91.4v21.62h10.8v-4.14zm35.7 6.58l-5.33 3.08h-14.4l-5.34-3.08v-26.5l5.34-3.08h14.4l5.33 3.08v26.5zm-18.63-24.06v21.62h12.2V45.16h-12.2zM149 51.23v20.84h-6.45v-32.2h6.02l13.9 20.84h.1V39.88H169v32.2h-6.03l-13.9-20.84H149zM3.36 92.85h7.92v2.88H0v-7.9l2.78-1.6h5.14V81.8H3.36v2.17H0v-3.43l2.78-1.6H8.5l2.78 1.6v6.96L8.5 89.1H3.36v3.75zm22.78 1.4l-2.8 1.6H16.8l-2.78-1.6V80.42l2.78-1.6h6.55l2.8 1.6v13.83zM17.38 81.7v11.27h5.4V81.7h-5.4zm11.49 2.85V81.4l4.32-2.47h2.87v13.92h3.84v2.88H28.88v-2.88h3.84v-10.5l-3.83 2.2zM45.3 81.8v3.23h5l2.8 1.6v7.62l-2.8 1.6h-6.07l-2.78-1.6V90.8h3.36v2.17h4.93V87.9h-7.8v-8.97h10.92v2.88H45.3zM7.3 11.6v20.83H.88V.23H6.9l13.9 20.84h.08V.23h6.44v32.2H21.3L7.4 11.6h-.1zm50.24 17.98l-5.33 3.08H37.8l-5.33-3.08V3.08L37.8 0h14.4l5.34 3.08v26.5zM38.9 5.52v21.62h12.2V5.52H38.9zm48.22 26.91h-7.1L73.16 20.3h-4v12.13h-6.45V.23h17.43l5.33 3.08v13.9l-5.33 3.1 7 12.13zm-18-26.68v9.02h9.9V5.75h-9.9zm46.58 23.6l-5.35 3.08H90.62V.23h19.73l5.34 3.08v26.05zM97.05 5.75V26.9h12.2V5.76h-12.2zm23.79 26.68V.23h6.44v32.2h-6.44zM149.68 23h6.44v6.58l-5.34 3.08h-13.02l-5.33-3.08V3.08L137.76 0h13.02l5.34 3.08v6.58h-6.44V5.52h-10.8v21.62h10.8V23z" fill="#fff"/></svg>