<svg version="1.1" xmlns="http://www.w3.org/2000/svg" x="0px" y="0px" viewBox="0 0 191.3 94.5" enable-background="new 0 0 191.3 94.5" xml:space="preserve"><path fill="#fff" d="M6.4,11.2v20.6H0V0h6l13.7,20.6h0.1V0h6.4v31.8h-6L6.4,11.2L6.4,11.2z"/><path fill="#fff" d="M55.7,29l-5.3,3H36.2l-5.3-3V2.8l5.3-3h14.2l5.3,3V29z M37.3,5.2v21.4h12V5.2H37.3z"/><path fill="#fff" d="M84.6,31.8h-7l-6.8-12h-4v12h-6.4V0h17.2L83,3v13.7l-5.3,3L84.6,31.8z M66.9,5.5v8.9h9.8V5.5H66.9z"/><path fill="#fff" d="M113.4,28.8l-5.3,3H88.6V0h19.5l5.3,3V28.8z M95,5.5v20.9h12V5.5H95z"/><path fill="#fff" d="M118.2,31.8V0h6.4v31.8H118.2z"/><path fill="#fff" d="M146.4,22.5h6.4V29l-5.3,3h-12.9l-5.3-3V2.8l5.3-3h12.9l5.3,3v6.5h-6.4V5.2h-10.7v21.4h10.7V22.5z"/><path fill="#fff" d="M0,55.3V42.4l5.3-3h11.5l5.3,3v6h-6.4v-3.6H6.4v7.6h10.4l5.3,3v13.1l-5.3,3h-12l-5.3-3v-6h6.4v3.6h9.8 v-7.9H5.3L0,55.3z"/><path fill="#fff" d="M26.8,71.4V39.6h6.4v31.8H26.8z"/><path fill="#fff" d="M51.6,45v26.4h-6.4V45h-8.6v-5.5h23.6V45H51.6z"/><path fill="#fff" d="M70,57.8V66h12.7v5.5H63.7V39.6h19.1V45H70v7.3h10v5.5H70z"/><path fill="#fff" d="M103.7,62.1h6.4v6.5l-5.3,3H91.9l-5.3-3V42.4l5.3-3h12.9l5.3,3v6.5h-6.4v-4.1H93v21.4h10.7V62.1z"/><path fill="#fff" d="M139.3,68.6l-5.3,3h-14.2l-5.3-3V42.4l5.3-3h14.2l5.3,3V68.6z M120.9,44.8v21.4h12V44.8H120.9z"/><path fill="#fff" d="M168.3,71.4h-7l-6.8-12h-4v12h-6.4V39.6h17.2l5.3,3v13.7l-5.3,3L168.3,71.4z M150.5,45v8.9h9.8V45H150.5z"/><path fill="#fff" d="M178.6,57.8V66h12.7v5.5h-19.1V39.6h19.1V45h-12.7v7.3h10v5.5H178.6z"/><path fill="#fff" d="M10,93.9c-0.5,0.3-1,0.6-1.7,0.7c-0.7,0.1-1.4,0.2-2.2,0.2c-0.9,0-1.7-0.1-2.5-0.4C2.7,94.1,2,93.7,1.4,93 c-0.6-0.6-1.1-1.4-1.5-2.4c-0.4-1-0.5-2.2-0.5-3.6c0-1.5,0.2-2.7,0.6-3.7c0.4-1,0.9-1.8,1.6-2.4c0.6-0.6,1.4-1,2.2-1.3 c0.8-0.3,1.6-0.4,2.4-0.4c0.9,0,1.6,0.1,2.2,0.2s1.1,0.2,1.5,0.4l-0.6,2.5C8.9,82.2,8.5,82.1,8,82c-0.4-0.1-1-0.1-1.6-0.1 c-1.2,0-2.1,0.4-2.8,1.3s-1.1,2.1-1.1,3.9c0,0.8,0.1,1.5,0.3,2.1c0.2,0.6,0.4,1.2,0.8,1.6c0.3,0.4,0.8,0.8,1.3,1 c0.5,0.2,1.1,0.4,1.8,0.4c0.6,0,1.2-0.1,1.6-0.2c0.4-0.1,0.8-0.3,1.2-0.5L10,93.9z"/><path fill="#fff" d="M10.6,87c0-2.5,0.5-4.4,1.6-5.7c1.1-1.3,2.7-2,4.7-2c1.1,0,2,0.2,2.8,0.6c0.8,0.4,1.5,0.9,2,1.6 c0.5,0.7,0.9,1.5,1.2,2.5s0.4,2,0.4,3.2c0,2.5-0.6,4.4-1.7,5.7c-1.1,1.3-2.7,2-4.7,2c-1.1,0-2-0.2-2.8-0.6c-0.8-0.4-1.5-0.9-2-1.6 s-0.9-1.5-1.2-2.5S10.6,88.2,10.6,87z M13.7,87c0,0.8,0.1,1.4,0.2,2.1c0.1,0.6,0.3,1.2,0.6,1.6c0.3,0.5,0.6,0.8,1,1.1 s0.9,0.4,1.5,0.4c1,0,1.8-0.4,2.4-1.2c0.6-0.8,0.9-2.1,0.9-3.9c0-0.7-0.1-1.4-0.2-2c-0.1-0.6-0.3-1.2-0.6-1.6 c-0.3-0.5-0.6-0.8-1-1.1c-0.4-0.3-0.9-0.4-1.5-0.4c-1,0-1.8,0.4-2.4,1.2C14,84,13.7,85.3,13.7,87z"/><path fill="#fff" d="M29.1,86.7l-1.2-2.3h-0.1l0.3,2.3v7.8h-2.8v-15h2.1l5.6,8l1.1,2.3h0.1L34,87.4v-7.8h2.8v15h-2.1L29.1,86.7z"/><path fill="#fff" d="M39.4,79.6h8.8v2.6h-5.9v3.7h5.5v2.6h-5.5v6h-2.9V79.6z"/><path fill="#fff" d="M50.2,79.6H59v2.6h-5.9v3.5h5.4v2.6h-5.4v3.6h6v2.6h-9V79.6z"/><path fill="#fff" d="M61.3,79.7c0.3-0.1,0.7-0.1,1.1-0.2c0.4,0,0.8-0.1,1.1-0.1s0.7,0,1.1-0.1s0.7,0,1,0c0.7,0,1.4,0.1,2.1,0.2 s1.3,0.3,1.8,0.7c0.5,0.3,1,0.7,1.3,1.3c0.3,0.5,0.5,1.2,0.5,2.1c0,1.2-0.3,2.2-0.9,3c-0.6,0.8-1.3,1.3-2.3,1.6l1,0.7l3.4,5.7h-3.4 l-3.4-5.8l-1.5-0.3v6.1h-2.9V79.7z M65.8,82c-0.3,0-0.6,0-0.9,0c-0.3,0-0.5,0-0.7,0.1v4.3h1.2c0.8,0,1.5-0.2,1.9-0.6 c0.5-0.4,0.7-1,0.7-1.8c0-0.6-0.2-1.1-0.6-1.5C67.2,82.1,66.6,82,65.8,82z"/><path fill="#fff" d="M74.2,79.6H83v2.6h-5.9v3.5h5.4v2.6h-5.4v3.6h6v2.6h-9V79.6z"/><path fill="#fff" d="M89,86.7l-1.2-2.3h-0.1l0.3,2.3v7.8h-2.8v-15h2.1l5.6,8l1.1,2.3h0.1L94,87.4v-7.8h2.8v15h-2.1L89,86.7z"/><path fill="#fff" d="M109.4,93.9c-0.5,0.3-1,0.6-1.7,0.7c-0.7,0.1-1.4,0.2-2.2,0.2c-0.9,0-1.7-0.1-2.5-0.4 c-0.8-0.3-1.5-0.7-2.1-1.3c-0.6-0.6-1.1-1.4-1.5-2.4c-0.4-1-0.5-2.2-0.5-3.6c0-1.5,0.2-2.7,0.6-3.7c0.4-1,0.9-1.8,1.6-2.4 c0.6-0.6,1.4-1,2.2-1.3c0.8-0.3,1.6-0.4,2.4-0.4c0.9,0,1.6,0.1,2.2,0.2s1.1,0.2,1.5,0.4l-0.6,2.5c-0.3-0.2-0.7-0.3-1.2-0.3 c-0.4-0.1-1-0.1-1.6-0.1c-1.2,0-2.1,0.4-2.8,1.3c-0.7,0.8-1.1,2.1-1.1,3.9c0,0.8,0.1,1.5,0.3,2.1c0.2,0.6,0.4,1.2,0.8,1.6 c0.3,0.4,0.8,0.8,1.3,1c0.5,0.2,1.1,0.4,1.8,0.4c0.6,0,1.2-0.1,1.6-0.2c0.4-0.1,0.8-0.3,1.2-0.5L109.4,93.9z"/><path fill="#fff" d="M111.2,79.6h8.8v2.6h-5.9v3.5h5.4v2.6h-5.4v3.6h6v2.6h-9V79.6z"/></svg>