<svg xmlns="http://www.w3.org/2000/svg" width="107" height="35"><path d="M59.1 18.1c0 .8-.1 1.6-.3 2.3-.2.7-.5 1.3-.9 1.7-.4.5-.9.9-1.5 1.1-.6.3-1.3.4-2 .4-.5 0-1-.1-1.4-.2-.4-.1-.8-.3-1-.4v4.1h-2.4v-14c.5-.1 1.1-.3 1.8-.4.7-.1 1.5-.2 2.3-.2.8 0 1.6.1 2.2.4.7.3 1.2.6 1.7 1.1.5.5.8 1.1 1.1 1.7.3.7.4 1.5.4 2.4zm-2.5 0c0-1.1-.2-2-.7-2.6-.5-.6-1.3-.9-2.4-.9h-.7l-.7.1v6.1c.2.2.5.3.9.4.4.1.7.2 1.1.2.9 0 1.5-.3 1.9-.9.4-.5.6-1.4.6-2.4zM61 18.1c0-.9.1-1.8.4-2.5.3-.7.6-1.3 1.1-1.8.5-.5 1-.8 1.6-1.1.6-.2 1.2-.4 1.8-.4 1.5 0 2.6.5 3.4 1.4.8.9 1.2 2.3 1.2 4.1v1h-7c.1.9.4 1.5.9 2s1.3.7 2.3.7c.6 0 1.1 0 1.6-.2.5-.1.9-.2 1.2-.3l.3 2c-.1.1-.3.1-.6.2-.2.1-.5.1-.8.2-.3.1-.6.1-1 .2-.3 0-.7.1-1.1.1-.9 0-1.7-.1-2.4-.4-.7-.3-1.2-.7-1.7-1.2-.4-.5-.8-1.1-1-1.8-.1-.6-.2-1.4-.2-2.2zm7.1-1.1c0-.3 0-.7-.1-1-.1-.3-.2-.6-.4-.8-.2-.2-.4-.4-.7-.5-.3-.1-.6-.2-.9-.2-.4 0-.7.1-1 .2-.3.1-.5.3-.7.6-.2.2-.3.5-.5.8-.1.3-.2.6-.2.9h4.5zM73.1 13.1c.5-.1 1.1-.3 1.8-.4.8-.1 1.6-.2 2.5-.2.8 0 1.6.1 2.2.4.6.2 1 .6 1.4 1 .4.4.6.9.7 1.5.1.6.2 1.3.2 2v6h-2.4v-5.6c0-.6 0-1.1-.1-1.5-.1-.4-.2-.7-.4-1-.2-.2-.4-.4-.7-.5-.3-.1-.7-.2-1.1-.2-.3 0-.6 0-1 .1-.3 0-.6.1-.7.1v8.6h-2.4v-10.3zM94.9 11.1c.4 0 .8-.1 1.1-.4.3-.3.4-.6.4-1.1 0-.5-.1-.8-.4-1.1-.3-.3-.7-.4-1.1-.4-.4 0-.8.1-1.1.4-.3.3-.4.6-.4 1.1 0 .5.1.8.4 1.1.3.3.7.4 1.1.4zM87.3 12.7v-3.2l-2.5.4v9.2c0 .7.1 1.3.2 1.9.1.5.3 1 .6 1.4.3.4.7.7 1.2.9.5.2 1.1.3 1.9.3.6 0 1.2-.1 1.6-.2.5-.1.8-.3 1.1-.4l-.4-2c-.2.1-.5.2-.8.3-.3.1-.7.1-1.2.1-.6 0-1.1-.2-1.4-.5-.3-.4-.4-1-.4-1.8v-4.3h6.4v8.6h2.5v-10.7h-8.8zM102.7 12.5c.8 0 1.5.1 2 .3.6.2 1 .5 1.3.9.3.4.6.8.7 1.3.1.5.2 1.1.2 1.7v6.5c-.4.1-.9.2-1.7.3-.8.1-1.6.2-2.6.2-.6 0-1.2-.1-1.7-.2s-1-.3-1.3-.6c-.4-.3-.7-.6-.9-1.1-.2-.4-.3-1-.3-1.6 0-.6.1-1.1.4-1.6.2-.4.6-.8 1-1 .4-.3.9-.5 1.4-.6.5-.1 1.1-.2 1.7-.2.3 0 .6 0 .9.1.3 0 .6.1.9.2v-.4c0-.3 0-.6-.1-.8-.1-.3-.2-.5-.4-.7-.2-.2-.4-.3-.7-.5-.3-.1-.6-.2-1-.2-.6 0-1.1 0-1.6.1s-.9.2-1.1.3l-.3-2c.3-.1.8-.2 1.3-.3.6-.1 1.2-.1 1.9-.1zm.2 9.2c.7 0 1.3 0 1.7-.1v-2.7c-.1 0-.3-.1-.6-.1s-.5-.1-.9-.1c-.3 0-.5 0-.8.1-.3 0-.5.1-.7.2-.2.1-.4.3-.5.4-.1.2-.2.4-.2.7 0 .6.2 1 .5 1.2.4.2.9.4 1.5.4zM26.5 32.9c.7.2 1.5.4 2.2.4v.1-.1c3.9 0 7-3.2 7-7.1 0-2.7-1.5-5.1-3.9-6.3h-.1l-9.2-5.1c-1.1.6-2.2 1-3.4 1.1l6.9 3.9h-.1c-2.6 1.1-4.2 3.7-4.2 6.5 0 .9.2 1.9.6 2.8.8-.4 1.6-.9 2.2-1.5-.1-.4-.2-.8-.2-1.3 0-1.2.5-2.3 1.3-3.1.8-.8 1.9-1.3 3.1-1.3 2.4 0 4.4 2 4.4 4.4 0 2.3-1.7 4.2-3.9 4.4-.9.8-1.8 1.5-2.7 2.2zM2.3 20.8c-1.5 1.3-2.3 3.2-2.3 5.2 0 3.9 3.1 7.1 7 7.1v.1-.1c1.1 0 2.2-.3 3.2-.8.3-.1.5-.3.8-.5l9-5.5v-.2c0-1.1.2-2.2.7-3.3l-6.8 4.1v-.9c0-3.6-2.7-6.6-6.2-7v.6c0 .7 0 1.4.2 2.1 2 .4 3.5 2.3 3.5 4.3 0 1.4-.7 2.8-1.8 3.6l-.7.4c-.6.3-1.2.5-1.9.5-2.4 0-4.4-2-4.4-4.4 0-.6.1-1.2.3-1.7-.3-1.2-.5-2.4-.6-3.6zM11.3 18.5c1 .6 1.9 1.4 2.6 2.4v-8.3l.1.1c1.2 1 2.7 1.5 4.2 1.5h.1c2.1 0 4.1-1 5.5-2.7-.7-.5-1.5-1-2.3-1.3-.8.9-1.9 1.3-3.1 1.3h-.1c-2.4 0-4.3-1.9-4.3-4.3v-.3c.1-2.4 2-4.3 4.4-4.3h.1c1.4 0 2.7.7 3.5 1.9 1.1.3 2.2.7 3.3 1.3-.6-3.3-3.4-5.8-6.8-5.8h-.1c-3.7 0-6.7 2.9-7 6.6v.5l-.1 11.4zM6.8 28.7h.1c.9 0 1.8-.5 2.3-1.2-1.9-2.2-2.9-5-2.9-7.9.1-3.1 1.3-5.9 3.4-8.1v-3.4c-.6.4-1.2.9-1.8 1.4-2.7 2.6-4.2 6.2-4.2 10 0 3.4 1 6.5 3.1 9.2zM29 16.4l3 1.7c-.4-3.1-1.7-6-3.9-8.3-2.6-2.7-6.2-4.3-9.9-4.4-.6 0-1.3 0-1.9.1-.3.4-.5 1-.5 1.5 0 .4.1.8.2 1.2.6-.1 1.3-.2 2-.2 3.1 0 6 1.3 8.1 3.6 1.4 1.4 2.3 3 2.9 4.8zM12.4 32.9c1.6.7 3.4 1.1 5.2 1.1h.2c3.7 0 7.3-1.5 9.9-4.1 1.4-1.4 2.5-3.1 3.3-4.9-.4-.8-1.3-1.4-2.2-1.4-.6 1.7-1.6 3.3-2.8 4.5-2.2 2.2-5.1 3.4-8.1 3.4h-.2c-.9 0-1.6-.1-2.3-.3l-3 1.7zM59.1 18.1c0 .8-.1 1.6-.3 2.3-.2.7-.5 1.3-.9 1.7-.4.5-.9.9-1.5 1.1-.6.3-1.3.4-2 .4-.5 0-1-.1-1.4-.2-.4-.1-.8-.3-1-.4v4.1h-2.4v-14c.5-.1 1.1-.3 1.8-.4.7-.1 1.5-.2 2.3-.2.8 0 1.6.1 2.2.4.7.3 1.2.6 1.7 1.1.5.5.8 1.1 1.1 1.7.3.7.4 1.5.4 2.4zm-2.5 0c0-1.1-.2-2-.7-2.6-.5-.6-1.3-.9-2.4-.9h-.7l-.7.1v6.1c.2.2.5.3.9.4.4.1.7.2 1.1.2.9 0 1.5-.3 1.9-.9.4-.5.6-1.4.6-2.4zM61 18.1c0-.9.1-1.8.4-2.5.3-.7.6-1.3 1.1-1.8.5-.5 1-.8 1.6-1.1.6-.2 1.2-.4 1.8-.4 1.5 0 2.6.5 3.4 1.4.8.9 1.2 2.3 1.2 4.1v1h-7c.1.9.4 1.5.9 2s1.3.7 2.3.7c.6 0 1.1 0 1.6-.2.5-.1.9-.2 1.2-.3l.3 2c-.1.1-.3.1-.6.2-.2.1-.5.1-.8.2-.3.1-.6.1-1 .2-.3 0-.7.1-1.1.1-.9 0-1.7-.1-2.4-.4-.7-.3-1.2-.7-1.7-1.2-.4-.5-.8-1.1-1-1.8-.1-.6-.2-1.4-.2-2.2zm7.1-1.1c0-.3 0-.7-.1-1-.1-.3-.2-.6-.4-.8-.2-.2-.4-.4-.7-.5-.3-.1-.6-.2-.9-.2-.4 0-.7.1-1 .2-.3.1-.5.3-.7.6-.2.2-.3.5-.5.8-.1.3-.2.6-.2.9h4.5zM73.1 13.1c.5-.1 1.1-.3 1.8-.4.8-.1 1.6-.2 2.5-.2.8 0 1.6.1 2.2.4.6.2 1 .6 1.4 1 .4.4.6.9.7 1.5.1.6.2 1.3.2 2v6h-2.4v-5.6c0-.6 0-1.1-.1-1.5-.1-.4-.2-.7-.4-1-.2-.2-.4-.4-.7-.5-.3-.1-.7-.2-1.1-.2-.3 0-.6 0-1 .1-.3 0-.6.1-.7.1v8.6h-2.4v-10.3zM94.9 11.1c.4 0 .8-.1 1.1-.4.3-.3.4-.6.4-1.1 0-.5-.1-.8-.4-1.1-.3-.3-.7-.4-1.1-.4-.4 0-.8.1-1.1.4-.3.3-.4.6-.4 1.1 0 .5.1.8.4 1.1.3.3.7.4 1.1.4zM87.3 12.7v-3.2l-2.5.4v9.2c0 .7.1 1.3.2 1.9.1.5.3 1 .6 1.4.3.4.7.7 1.2.9.5.2 1.1.3 1.9.3.6 0 1.2-.1 1.6-.2.5-.1.8-.3 1.1-.4l-.4-2c-.2.1-.5.2-.8.3-.3.1-.7.1-1.2.1-.6 0-1.1-.2-1.4-.5-.3-.4-.4-1-.4-1.8v-4.3h6.4v8.6h2.5v-10.7h-8.8zM102.7 12.5c.8 0 1.5.1 2 .3.6.2 1 .5 1.3.9.3.4.6.8.7 1.3.1.5.2 1.1.2 1.7v6.5c-.4.1-.9.2-1.7.3-.8.1-1.6.2-2.6.2-.6 0-1.2-.1-1.7-.2s-1-.3-1.3-.6c-.4-.3-.7-.6-.9-1.1-.2-.4-.3-1-.3-1.6 0-.6.1-1.1.4-1.6.2-.4.6-.8 1-1 .4-.3.9-.5 1.4-.6.5-.1 1.1-.2 1.7-.2.3 0 .6 0 .9.1.3 0 .6.1.9.2v-.4c0-.3 0-.6-.1-.8-.1-.3-.2-.5-.4-.7-.2-.2-.4-.3-.7-.5-.3-.1-.6-.2-1-.2-.6 0-1.1 0-1.6.1s-.9.2-1.1.3l-.3-2c.3-.1.8-.2 1.3-.3.6-.1 1.2-.1 1.9-.1zm.2 9.2c.7 0 1.3 0 1.7-.1v-2.7c-.1 0-.3-.1-.6-.1s-.5-.1-.9-.1c-.3 0-.5 0-.8.1-.3 0-.5.1-.7.2-.2.1-.4.3-.5.4-.1.2-.2.4-.2.7 0 .6.2 1 .5 1.2.4.2.9.4 1.5.4zM26.5 32.9c.7.2 1.5.4 2.2.4v.1-.1c3.9 0 7-3.2 7-7.1 0-2.7-1.5-5.1-3.9-6.3h-.1l-9.2-5.1c-1.1.6-2.2 1-3.4 1.1l6.9 3.9h-.1c-2.6 1.1-4.2 3.7-4.2 6.5 0 .9.2 1.9.6 2.8.8-.4 1.6-.9 2.2-1.5-.1-.4-.2-.8-.2-1.3 0-1.2.5-2.3 1.3-3.1.8-.8 1.9-1.3 3.1-1.3 2.4 0 4.4 2 4.4 4.4 0 2.3-1.7 4.2-3.9 4.4-.9.8-1.8 1.5-2.7 2.2zM2.3 20.8c-1.5 1.3-2.3 3.2-2.3 5.2 0 3.9 3.1 7.1 7 7.1v.1-.1c1.1 0 2.2-.3 3.2-.8.3-.1.5-.3.8-.5l9-5.5v-.2c0-1.1.2-2.2.7-3.3l-6.8 4.1v-.9c0-3.6-2.7-6.6-6.2-7v.6c0 .7 0 1.4.2 2.1 2 .4 3.5 2.3 3.5 4.3 0 1.4-.7 2.8-1.8 3.6l-.7.4c-.6.3-1.2.5-1.9.5-2.4 0-4.4-2-4.4-4.4 0-.6.1-1.2.3-1.7-.3-1.2-.5-2.4-.6-3.6zM11.3 18.5c1 .6 1.9 1.4 2.6 2.4v-8.3l.1.1c1.2 1 2.7 1.5 4.2 1.5h.1c2.1 0 4.1-1 5.5-2.7-.7-.5-1.5-1-2.3-1.3-.8.9-1.9 1.3-3.1 1.3h-.1c-2.4 0-4.3-1.9-4.3-4.3v-.3c.1-2.4 2-4.3 4.4-4.3h.1c1.4 0 2.7.7 3.5 1.9 1.1.3 2.2.7 3.3 1.3-.6-3.3-3.4-5.8-6.8-5.8h-.1c-3.7 0-6.7 2.9-7 6.6v.5l-.1 11.4zM6.8 28.7h.1c.9 0 1.8-.5 2.3-1.2-1.9-2.2-2.9-5-2.9-7.9.1-3.1 1.3-5.9 3.4-8.1v-3.4c-.6.4-1.2.9-1.8 1.4-2.7 2.6-4.2 6.2-4.2 10 0 3.4 1 6.5 3.1 9.2zM29 16.4l3 1.7c-.4-3.1-1.7-6-3.9-8.3-2.6-2.7-6.2-4.3-9.9-4.4-.6 0-1.3 0-1.9.1-.3.4-.5 1-.5 1.5 0 .4.1.8.2 1.2.6-.1 1.3-.2 2-.2 3.1 0 6 1.3 8.1 3.6 1.4 1.4 2.3 3 2.9 4.8zM12.4 32.9c1.6.7 3.4 1.1 5.2 1.1h.2c3.7 0 7.3-1.5 9.9-4.1 1.4-1.4 2.5-3.1 3.3-4.9-.4-.8-1.3-1.4-2.2-1.4-.6 1.7-1.6 3.3-2.8 4.5-2.2 2.2-5.1 3.4-8.1 3.4h-.2c-.9 0-1.6-.1-2.3-.3l-3 1.7z" fill="#000"/></svg>