<svg xmlns="http://www.w3.org/2000/svg" viewBox="200 200 410 410"><defs><clipPath id="a"><path d="M0 792h612V0H0v792z"/></clipPath></defs><g clip-path="url(#a)"><path fill="#e43026" d="M405.072 397.965c-30.62 0-55.453-24.954-55.453-55.747s24.833-55.76 55.452-55.76c30.62 0 55.453 24.955 55.453 55.76 0 30.793-24.834 55.747-55.453 55.747m-.746-131.568c-41.857 0-75.82 34.125-75.82 76.248s33.95 76.248 75.82 76.248c41.882 0 75.847-34.125 75.847-76.248s-33.965-76.248-75.847-76.248M353.645 356.375s9.064 35.484 44.562 39.283c35.485 3.813 53.227-27.033 53.227-27.033l-9.505-5.918s-14.797 24.927-41.19 24.087c-26.394-.853-39.724-16.69-47.108-30.42M372.307 376.437c7.998 5.665 17.436 8.664 28.473 9.024 25.287.8 39.856-23.193 39.99-23.433l.706-1.173 1.147.706 8.904 5.546c8.17-13.424 6.212-28.46 6.212-28.46l-16.45.2s1.266 24.287-27.887 38.017c-12.13 5.732-32.525 4.8-44.79-4.865 0 0 1.068 1.933 3.694 4.425M438.877 337.566l-.08-1.386h1.386l17.33-.2c-.774-13.423-10.93-25.234-10.93-25.234l-19.436 12.037s12.37 9.25 1.173 31.113c-3.893 7.598-12.264 15.796-19.995 19.408-9.398 4.4-16.623 4.626-16.623 4.626.933.4 10.05 2.2 22.794-3.466 25.194-11.197 24.42-35.95 24.394-36.924"/><path fill="#231f20" fill-rule="evenodd" d="M304.524 460.07s-.627 32.338.027 46.76c.174 3.866.16 8.48 3.466 12.93 3.413 4.586 10.398 4.986 12.037 5.066 2.56.107 5.332-.106 8.638-.066.56 0 1.787.093 1.947-1.28v-5.532c-.293-.96-1.946-.8-2.88-.76-3.918.107-8.37-.187-10.13-2.533-1.333-1.733-2.106-3.64-2-5.438l.134-13.73V479.09h8.16c.44-.04 1.145.068 1.505-.052.64-.16.667-1.147.667-1.333v-5.026c0-.187.066-1.427-1.733-1.374h-8.612c-.134-2.133-.027-11.01-.027-11.01-.04-.933-.132-1.653-.266-1.933-.24-.507-.906-.893-1.44-.867-3.598.214-7.224 1.053-9.49 2.586M281.29 472.64c-.267.133-.8.466-.8 1.386v49.947s.56.32 5.145.32c4.492 0 5.066-.4 5.066-.4-.026 0 .134-50.2-.026-51.454-.133-.974-.24-2.094-1.56-2-2.666.72-5.518 1.2-7.838 2.226M522.976 478.998c3.066.133 4-.854 4.265-2 .188-.96 0-3.426-.065-3.906-.067-.666-.307-1.56-1.733-1.76-1.16-.132-3.066 0-6.745-.04-1.16 0-3.373-.08-4.826.134-13.502 2.133-12.395 13.677-12.395 13.677v38.883s.573.32 5.158.32c4.493 0 5.04-.4 5.04-.4s.066-20.82.066-35.99c.225-7.785 5.637-9.132 11.25-8.878M264.574 478.224c.746-1.652 1.16-3.505.493-4.092-2.293-2.026-8.504-2.72-9.758-2.852-11.598-1.2-24.314 2.24-25.9 12.09-1.534 9.624 6.69 12.93 13.823 16.396 6.57 3.2 15.236 5.065 13.81 12.09-1.654 8.105-15.943 4.56-20.715 3.466-1.96-.467-3.973-1.773-5.426-1.626-1.04.106-1.813 1.2-1.946 1.466-.733 1.44-1.653 2.72-1.226 5.332.6 2.373 8.798 3.36 9.437 3.466 22.768 3.4 27.7-5.426 28.7-7.132 8.158-13.89-9.558-20.728-10.57-21.38-5.6-3.6-16.13-4.587-14.664-12.09.8-4.214 5.505-4.974 8.625-5.2 5.305-.347 10.73 2.2 12.263 2.4 1.734.24 2.4-.894 3.04-2.36"/><path fill="#231f20" d="M347.566 493.767c0-.533.307-4.84 2.506-8.798.2-.36.427-.72.667-1.067 1.972-2.986 5.17-5.532 10.303-5.772.133-.025.267-.04.4-.04h.24c2.4 0 4.372.534 5.972 1.467 1.6.894 2.84 2.16 3.772 3.573 3.066 4.585 3.133 10.624 3.133 10.624h-26.98zm-57.5-65.122c1.866-.093 4.052.133 5.772-.067.906-.106 2.373-1.106 2.2-3.172-.4-5.066-.4-15.276-8.998-21.808-6.052-4.612-13.517-5.132-19.41-4.292-2.598.373-11.53 3.265-16.395 11.223-3.24 5.33-4.4 13.516-3.44 20.714 2 15.157 14.957 19.662 16.13 20.102 2 .733 4.8 1.2 7.172 1.466 3.332.4 8.158.493 12.09 0 2.36-.266 5.026-.4 7.065-2 .467-.36.72-1.466.64-2.56-.267-.665-.4-1.518-.587-2.305-.933-2.506-3.932-1.8-4.852-1.546-3.56.934-12.796.36-12.796.36-2.693-.132-5.812-.986-7.172-2.132-7.545-6.345-6.452-13.996-6.452-13.996h29.06zM541.37 493.767c0-.533.308-4.84 2.507-8.798.214-.36.44-.72.667-1.067 2-2.986 5.2-5.532 10.317-5.772.135-.025.268-.04.4-.04h.241c2.44 0 4.4.534 6 1.467 1.6.894 2.8 2.16 3.76 3.573 3.065 4.585 3.118 10.624 3.118 10.624H541.41zm-105.914-65.122c1.866-.093 4.04.133 5.772-.067.906-.106 2.373-1.106 2.2-3.172-.4-5.066-.4-15.276-8.985-21.808-6.065-4.612-13.517-5.132-19.41-4.292-2.625.373-11.556 3.265-16.394 11.223-3.267 5.33-4.427 13.516-3.467 20.714 2.026 15.157 14.97 19.662 16.13 20.102 2 .733 4.798 1.2 7.197 1.466 3.306.4 8.132.493 12.064 0 2.36-.266 5.04-.4 7.065-2 .48-.36.732-1.466.665-2.56-.306-.665-.426-1.518-.6-2.305-.96-2.506-3.945-1.8-4.878-1.546-3.546.934-12.797.36-12.797.36-2.666-.132-5.812-.986-7.172-2.132-7.53-6.345-6.45-13.996-6.45-13.996h29.085zM475.64 512.27c-2.625 3.665-7.197 5.93-11.223 5.93-3.306 0-7.198-1.505-9.637-4.05-3.466-3.6-4.8-9.332-4.8-15.757 0-6.84 1.414-11.664 4.893-15.57 2.36-2.64 6.532-4.265 9.544-4.265 4.466 0 8.49 1.24 11.89 6.718 2.107 3.413 2.533 8.305 2.533 13.117 0 5.398-.64 10.304-3.2 13.863m12.345-26.833c-4.4-8.61-13.197-14.49-23.38-14.49-10.825 0-19.65 6.332-23.702 15.863-1.386 3.266-1.973 7.145-1.973 10.93 0 4.772.533 9.278 2.666 13.157 4.532 8.21 13.13 13.757 23.008 13.757 10.33 0 19.288-5.412 23.594-14.264 1.733-3.6 2.266-7.784 2.266-12.077 0-4.44-.6-9.158-2.48-12.864"/><path fill="#231f20" fill-rule="evenodd" d="M409.698 482.223s-4.613 3.466-5.2 13.104c-.56 9.624 3.04 19.408 10.225 20.995 7.198 1.573 11.797-.294 11.797-.294s.267-.133.707-.266c1.306-.4 3.505-1.12 4.772.693.56.8 1.398 2.733 1.438 4.04.027 1.678-1.013 2.585-3.026 3.305-4.985 1.773-17.995 2.732-28.353-4.32-10.37-7.064-12.53-28.06-4.613-37.55 7.918-9.49 17.996-12.37 30.793-9.637l3.025 1.293s2.44.706.72 3.732c-1.733 3.013-2.306 3.466-5.758 2.44-3.466-1.014-12.09-2.307-16.53 2.44"/><path fill="#231f20" d="M584.387 468.774h.573c.933 0 1.4-.4 1.4-1.227 0-.666-.44-1-1.333-1h-.64v2.227zm-146.067-24.378h-1.146c-.08 0-.094-.027-.094-.094v-6.97h2.066c1.813 0 2.533.88 2.533 2.105 0 .866-.294 1.28-1.267 1.8l1.56 2.972c.026.08 0 .186-.067.186h-1.227c-.067 0-.134-.04-.2-.16l-1.427-2.72h-.64v2.8c0 .106-.053.093-.08.093m1.093.985c1.293 0 2.4-.44 3.306-1.333.907-.906 1.373-2 1.373-3.265 0-1.253-.466-2.333-1.373-3.24-.906-.906-2-1.36-3.252-1.36s-2.333.454-3.24 1.36c-.906.907-1.36 2-1.36 3.253 0 1.24.454 2.32 1.334 3.24.933.892 2 1.332 3.2 1.332m0 1.333c-1.6 0-2.974-.573-4.133-1.733-1.146-1.173-1.732-2.572-1.732-4.185 0-1.64.586-3.066 1.733-4.2 1.16-1.132 2.56-1.732 4.2-1.732s3.04.6 4.185 1.733c1.16 1.16 1.733 2.56 1.733 4.2 0 1.665-.573 3.065-1.733 4.21-1.16 1.16-2.572 1.734-4.265 1.734"/></g></svg>