<svg xmlns="http://www.w3.org/2000/svg" viewBox="200 200 410 410"><defs><clipPath id="a"><path d="M0 792h612V0H0v792z"/></clipPath></defs><g><g><g clip-path="url(#a)" transform="matrix(1.333 0 0 -1.333 0 1056)"><path fill="#e43026" d="M303.88 493.65c-22.97 0-41.6 18.72-41.6 41.82s18.63 41.83 41.6 41.83c22.97 0 41.6-18.72 41.6-41.83 0-23.1-18.63-41.82-41.6-41.82m-.56 98.7c-31.4 0-56.88-25.6-56.88-57.2s25.47-57.2 56.88-57.2c31.42 0 56.9 25.6 56.9 57.2s-25.48 57.2-56.9 57.2"/><path fill="#e43026" d="M265.3 524.85s6.8-26.62 33.43-29.47c26.62-2.86 39.93 20.28 39.93 20.28l-7.13 4.44s-11.1-18.7-30.9-18.07c-19.8.64-29.8 12.52-35.34 22.82"/><path fill="#e43026" d="M279.3 509.8c6-4.25 13.08-6.5 21.36-6.77 18.97-.6 29.9 17.4 30 17.58l.53.88.86-.53 6.68-4.16c6.13 10.07 4.66 21.35 4.66 21.35l-12.34-.15s.95-18.22-20.92-28.52c-9.1-4.3-24.4-3.6-33.6 3.65 0 0 .8-1.45 2.77-3.32"/><path fill="#e43026" d="M329.24 538.96l-.06 1.04h1.04l13 .15c-.58 10.07-8.2 18.93-8.2 18.93l-14.58-9.03s9.28-6.94.88-23.34c-2.92-5.7-9.2-11.85-15-14.56-7.05-3.3-12.47-3.47-12.47-3.47.7-.3 7.54-1.65 17.1 2.6 18.9 8.4 18.32 26.97 18.3 27.7"/><path fill="#231f20" fill-rule="evenodd" d="M228.45 447.06s-.47-24.26.02-35.08c.13-2.9.12-6.36 2.6-9.7 2.56-3.44 7.8-3.74 9.03-3.8 1.92-.08 4 .08 6.48.05.42 0 1.34-.07 1.46.96v4.15c-.22.72-1.46.6-2.16.57-2.94-.08-6.28.14-7.6 1.9-1 1.3-1.58 2.73-1.5 4.08l.1 10.3v12.3H243c.33.03.86-.05 1.13.04.48.12.5.86.5 1v3.77c0 .14.05 1.07-1.3 1.03h-6.46c-.1 1.6-.02 8.26-.02 8.26-.03.7-.1 1.24-.2 1.45-.18.38-.68.67-1.08.65-2.7-.16-5.42-.79-7.12-1.94"/><path fill="#231f20" fill-rule="evenodd" d="M211.02 437.63c-.2-.1-.6-.35-.6-1.04v-37.47s.42-.24 3.86-.24c3.37 0 3.8.3 3.8.3-.02 0 .1 37.66-.02 38.6-.1.73-.18 1.57-1.17 1.5-2-.54-4.14-.9-5.88-1.67"/><path fill="#231f20" fill-rule="evenodd" d="M392.33 432.86c2.3-.1 3 .64 3.2 1.5.14.72 0 2.57-.05 2.93-.05.5-.23 1.17-1.3 1.32-.87.1-2.3 0-5.06.03-.87 0-2.53.06-3.62-.1-10.13-1.6-9.3-10.26-9.3-10.26v-29.17s.43-.24 3.87-.24c3.37 0 3.78.3 3.78.3s.05 15.62.05 27c.17 5.84 4.23 6.85 8.44 6.66"/><path fill="#231f20" fill-rule="evenodd" d="M198.48 433.44c.56 1.24.87 2.63.37 3.07-1.72 1.52-6.38 2.04-7.32 2.14-8.7.9-18.24-1.68-19.43-9.07-1.15-7.22 5.02-9.7 10.37-12.3 4.93-2.4 11.43-3.8 10.36-9.07-1.24-6.08-11.96-3.42-15.54-2.6-1.47.35-2.98 1.33-4.07 1.22-.78-.08-1.36-.9-1.46-1.1-.55-1.08-1.24-2.04-.92-4 .45-1.78 6.6-2.52 7.08-2.6 17.08-2.55 20.78 4.07 21.53 5.35 6.12 10.42-7.17 15.55-7.93 16.04-4.2 2.7-12.1 3.44-11 9.07.6 3.16 4.13 3.73 6.47 3.9 3.98.26 8.05-1.65 9.2-1.8 1.3-.18 1.8.67 2.28 1.77"/><path fill="#231f20" d="M260.74 421.78c0 .4.23 3.63 1.88 6.6.15.27.32.54.5.8 1.48 2.24 3.88 4.15 7.73 4.33.1.02.2.03.3.03.02 0 .04 0 .07 0 .02 0 .04 0 .06 0h.05c1.8 0 3.28-.4 4.48-1.1 1.2-.67 2.13-1.62 2.83-2.68 2.3-3.44 2.35-7.97 2.35-7.97h-20.24zm22-5.15c1.4.07 3.04-.1 4.33.05.68.08 1.78.83 1.65 2.38-.3 3.8-.3 11.46-6.75 16.36-4.54 3.46-10.14 3.85-14.56 3.22-1.95-.28-8.65-2.45-12.3-8.42-2.43-4-3.3-10.14-2.58-15.54 1.5-11.37 11.22-14.75 12.1-15.08 1.5-.55 3.6-.9 5.38-1.1 2.5-.3 6.12-.37 9.07 0 1.77.2 3.77.3 5.3 1.5.35.27.54 1.1.48 1.92-.2.5-.3 1.14-.44 1.73-.7 1.88-2.95 1.35-3.64 1.16-2.67-.7-9.6-.27-9.6-.27-2.02.1-4.36.74-5.38 1.6-5.66 4.76-4.84 10.5-4.84 10.5h21.8z"/><path fill="#231f20" d="M406.13 421.78c0 .4.23 3.63 1.88 6.6.16.27.33.54.5.8 1.5 2.24 3.9 4.15 7.74 4.33.1.02.2.03.3.03.02 0 .04 0 .07 0 .03 0 .05 0 .07 0h.04c1.83 0 3.3-.4 4.5-1.1 1.2-.67 2.1-1.62 2.82-2.68 2.3-3.44 2.34-7.97 2.34-7.97h-20.23zm22-5.15c1.4.07 3.03-.1 4.33.05.68.08 1.78.83 1.65 2.38-.3 3.8-.3 11.46-6.74 16.36-4.55 3.46-10.14 3.85-14.56 3.22-1.97-.28-8.67-2.45-12.3-8.42-2.45-4-3.32-10.14-2.6-15.54 1.52-11.37 11.23-14.75 12.1-15.08 1.5-.55 3.6-.9 5.4-1.1 2.48-.3 6.1-.37 9.05 0 1.77.2 3.78.3 5.3 1.5.36.27.55 1.1.5 1.92-.23.5-.32 1.14-.45 1.73-.72 1.88-2.96 1.35-3.66 1.16-2.66-.7-9.6-.27-9.6-.27-2 .1-4.36.74-5.38 1.6-5.65 4.76-4.84 10.5-4.84 10.5h21.82z"/><path fill="#231f20" d="M356.82 407.9c-1.97-2.75-5.4-4.45-8.42-4.45-2.48 0-5.4 1.13-7.23 3.04-2.6 2.7-3.6 7-3.6 11.82 0 5.13 1.06 8.75 3.67 11.68 1.77 1.98 4.9 3.2 7.16 3.2 3.35 0 6.37-.93 8.92-5.04 1.58-2.56 1.9-6.23 1.9-9.84 0-4.05-.48-7.73-2.4-10.4m9.26 20.13c-3.3 6.46-9.9 10.87-17.54 10.87-8.12 0-14.74-4.75-17.78-11.9-1.04-2.45-1.48-5.36-1.48-8.2 0-3.58.4-6.96 2-9.87 3.4-6.16 9.85-10.32 17.26-10.32 7.75 0 14.47 4.06 17.7 10.7 1.3 2.7 1.7 5.84 1.7 9.06 0 3.33-.45 6.87-1.86 9.65"/><path fill="#231f20" fill-rule="evenodd" d="M307.35 430.44s-3.46-2.6-3.9-9.83c-.42-7.22 2.28-14.56 7.67-15.75 5.4-1.18 8.85.22 8.85.22s.2.1.53.2c.98.3 2.63.84 3.58-.52.42-.6 1.05-2.05 1.08-3.03.02-1.26-.76-1.94-2.27-2.48-3.74-1.33-13.5-2.05-21.27 3.24-7.78 5.3-9.4 21.05-3.46 28.17 5.94 7.12 13.5 9.28 23.1 7.23l2.27-.97s1.83-.53.54-2.8c-1.3-2.26-1.73-2.6-4.32-1.83-2.6.76-9.07 1.73-12.4-1.83"/><path fill="#231f20" d="M438.4 440.53h.43c.7 0 1.05.3 1.05.92 0 .5-.33.75-1 .75h-.48v-1.67zm-.06-2.9h-.86c-.06 0-.07.02-.07.07v5.23h1.55c1.36 0 1.9-.66 1.9-1.58 0-.65-.22-.96-.95-1.35l1.17-2.23c.02-.06 0-.14-.05-.14 0 0-.92 0-.92 0-.05 0-.1.03-.15.12l-1.07 2.04h-.48v-2.1c0-.08-.04-.07-.06-.07m.82-.74c.97 0 1.8.33 2.48 1 .68.68 1.03 1.5 1.03 2.45 0 .94-.35 1.75-1.03 2.43-.68.68-1.5 1.02-2.44 1.02s-1.75-.34-2.43-1.02c-.68-.68-1.02-1.5-1.02-2.44 0-.93.34-1.74 1-2.43.7-.67 1.5-1 2.4-1m0-1c-1.2 0-2.23.43-3.1 1.3-.86.88-1.3 1.93-1.3 3.14 0 1.23.44 2.3 1.3 3.15.87.85 1.92 1.3 3.15 1.3s2.28-.45 3.14-1.3c.87-.87 1.3-1.92 1.3-3.15 0-1.25-.43-2.3-1.3-3.16-.87-.87-1.93-1.3-3.2-1.3"/></g></g></g></svg>